<svg xmlns="http://www.w3.org/2000/svg" version="1.1" viewBox="0 0 1004.6328459015556 814.2458609815592" width="1004.6328459015556" height="814.2458609815592"><!-- svg-source:excalidraw --><metadata/><defs><style class="style-fonts">
      </style></defs><rect x="0" y="0" width="1004.6328459015556" height="814.2458609815592" fill="#ffffff"/><g stroke-linecap="round"><g transform="translate(502.2190891442723 614.4280685364869) rotate(0 -243.96426409235482 -207.3729153166471)"><path d="M0 0 C-19.7 26.09, -80.4 124.97, -118.18 156.55 C-155.97 188.14, -187.99 190.75, -226.7 189.51 C-265.41 188.26, -309.65 179.05, -350.44 149.1 C-391.22 119.14, -448.51 70.02, -471.42 9.76 C-494.34 -50.5, -495.74 -147.51, -487.93 -212.46 C-480.12 -277.41, -450.93 -334.16, -424.55 -379.93 C-398.17 -425.69, -361.92 -458.86, -329.67 -487.05 C-297.42 -515.24, -265.62 -531.86, -231.05 -549.08 C-196.49 -566.29, -160.33 -581.15, -122.27 -590.35 C-84.2 -599.54, -22.6 -601.93, -2.66 -604.25 M0 0 C-19.7 26.09, -80.4 124.97, -118.18 156.55 C-155.97 188.14, -187.99 190.75, -226.7 189.51 C-265.41 188.26, -309.65 179.05, -350.44 149.1 C-391.22 119.14, -448.51 70.02, -471.42 9.76 C-494.34 -50.5, -495.74 -147.51, -487.93 -212.46 C-480.12 -277.41, -450.93 -334.16, -424.55 -379.93 C-398.17 -425.69, -361.92 -458.86, -329.67 -487.05 C-297.42 -515.24, -265.62 -531.86, -231.05 -549.08 C-196.49 -566.29, -160.33 -581.15, -122.27 -590.35 C-84.2 -599.54, -22.6 -601.93, -2.66 -604.25" stroke="#2f9e44" stroke-width="4" fill="none"/></g></g><mask/><g stroke-linecap="round"><g transform="translate(502.4137567572833 614.5025373993235) rotate(0 243.22002843798046 -207.49840188667764)"><path d="M0 0 C19.7 26.09, 80.4 124.97, 118.18 156.55 C155.97 188.14, 187.99 190.75, 226.7 189.51 C265.41 188.26, 309.65 179.05, 350.44 149.1 C391.22 119.14, 448.51 70.02, 471.42 9.76 C494.34 -50.5, 495.74 -147.51, 487.93 -212.46 C480.12 -277.41, 450.93 -334.16, 424.55 -379.93 C398.17 -425.69, 361.92 -458.86, 329.67 -487.05 C297.42 -515.24, 265.62 -531.86, 231.05 -549.08 C196.49 -566.29, 161.03 -581.11, 122.27 -590.35 C83.51 -599.58, 19.14 -602.14, -1.49 -604.5 M0 0 C19.7 26.09, 80.4 124.97, 118.18 156.55 C155.97 188.14, 187.99 190.75, 226.7 189.51 C265.41 188.26, 309.65 179.05, 350.44 149.1 C391.22 119.14, 448.51 70.02, 471.42 9.76 C494.34 -50.5, 495.74 -147.51, 487.93 -212.46 C480.12 -277.41, 450.93 -334.16, 424.55 -379.93 C398.17 -425.69, 361.92 -458.86, 329.67 -487.05 C297.42 -515.24, 265.62 -531.86, 231.05 -549.08 C196.49 -566.29, 161.03 -581.11, 122.27 -590.35 C83.51 -599.58, 19.14 -602.14, -1.49 -604.5" stroke="#2f9e44" stroke-width="4" fill="none"/></g></g><mask/></svg>